REM DIRINDEX 1\5,1\2\6,1\2\7,1\3\8,1\3\9,1\4\10,1\4\11,1\4\12
REM DIRNAME folder01,folder02,folder03,folder04,folder05,folder06,folder07,folder08,folder09,folder10,folder11,folder12
TITLE ""
FILE "EJE_DB3000_5th_5C_16.mp3" MP3
  TRACK 01 AUDIO
    TITLE "0:"
    INDEX 01 00:00:00
  TRACK 02 AUDIO
    TITLE "10:cjc026_10737"
    INDEX 01 00:00:05
  TRACK 03 AUDIO
    TITLE "0:"
    INDEX 01 00:00:72
  TRACK 04 AUDIO
    TITLE "11:cjc026_10738"
    INDEX 01 00:01:22
  TRACK 05 AUDIO
    TITLE "0:"
    INDEX 01 00:02:28
  TRACK 06 AUDIO
    TITLE "12:cjc026_10739"
    INDEX 01 00:02:53
  TRACK 07 AUDIO
    TITLE "0:"
    INDEX 01 00:03:45
  TRACK 08 AUDIO
    TITLE "10:cjc026_10740"
    INDEX 01 00:03:70
  TRACK 09 AUDIO
    TITLE "0:"
    INDEX 01 00:04:56
  TRACK 10 AUDIO
    TITLE "11:cjc026_10741"
    INDEX 01 00:05:07
  TRACK 11 AUDIO
    TITLE "0:"
    INDEX 01 00:06:02
  TRACK 12 AUDIO
    TITLE "12:cjc026_10742"
    INDEX 01 00:06:30
  TRACK 13 AUDIO
    TITLE "0:"
    INDEX 01 00:07:15
  TRACK 14 AUDIO
    TITLE "10:cjc026_10743"
    INDEX 01 00:07:41
  TRACK 15 AUDIO
    TITLE "0:"
    INDEX 01 00:08:42
  TRACK 16 AUDIO
    TITLE "11:cjc026_10744"
    INDEX 01 00:08:70
  TRACK 17 AUDIO
    TITLE "0:"
    INDEX 01 00:09:67
  TRACK 18 AUDIO
    TITLE "12:cjc026_10745"
    INDEX 01 00:10:16
  TRACK 19 AUDIO
    TITLE "0:"
    INDEX 01 00:11:17
  TRACK 20 AUDIO
    TITLE "10:cjc026_10746"
    INDEX 01 00:11:44
  TRACK 21 AUDIO
    TITLE "0:"
    INDEX 01 00:12:36
  TRACK 22 AUDIO
    TITLE "11:cjc026_10747"
    INDEX 01 00:12:61
  TRACK 23 AUDIO
    TITLE "0:"
    INDEX 01 00:13:67
  TRACK 24 AUDIO
    TITLE "12:cjc026_10748"
    INDEX 01 00:14:19
  TRACK 25 AUDIO
    TITLE "0:"
    INDEX 01 00:15:11
  TRACK 26 AUDIO
    TITLE "10:cjc026_10749"
    INDEX 01 00:15:36
  TRACK 27 AUDIO
    TITLE "0:"
    INDEX 01 00:16:20
  TRACK 28 AUDIO
    TITLE "11:cjc026_10750"
    INDEX 01 00:16:48
  TRACK 29 AUDIO
    TITLE "0:"
    INDEX 01 00:17:55
  TRACK 30 AUDIO
    TITLE "12:cjc026_10751"
    INDEX 01 00:18:05
  TRACK 31 AUDIO
    TITLE "0:"
    INDEX 01 00:18:64
  TRACK 32 AUDIO
    TITLE "10:cjc026_10752"
    INDEX 01 00:19:15
  TRACK 33 AUDIO
    TITLE "0:"
    INDEX 01 00:20:08
  TRACK 34 AUDIO
    TITLE "11:cjc026_10753"
    INDEX 01 00:20:34
  TRACK 35 AUDIO
    TITLE "0:"
    INDEX 01 00:21:47
  TRACK 36 AUDIO
    TITLE "12:cjc026_10754"
    INDEX 01 00:21:72
  TRACK 37 AUDIO
    TITLE "0:"
    INDEX 01 00:22:66
  TRACK 38 AUDIO
    TITLE "10:cjc026_10755"
    INDEX 01 00:23:16
  TRACK 39 AUDIO
    TITLE "0:"
    INDEX 01 00:24:06
  TRACK 40 AUDIO
    TITLE "11:cjc026_10756"
    INDEX 01 00:24:31
  TRACK 41 AUDIO
    TITLE "0:"
    INDEX 01 00:25:33
  TRACK 42 AUDIO
    TITLE "12:cjc026_10757"
    INDEX 01 00:25:60
  TRACK 43 AUDIO
    TITLE "0:"
    INDEX 01 00:26:50
  TRACK 44 AUDIO
    TITLE "10:cjc026_10758"
    INDEX 01 00:27:00
  TRACK 45 AUDIO
    TITLE "0:"
    INDEX 01 00:27:61
  TRACK 46 AUDIO
    TITLE "11:cjc026_10759"
    INDEX 01 00:28:12
  TRACK 47 AUDIO
    TITLE "0:"
    INDEX 01 00:28:74
  TRACK 48 AUDIO
    TITLE "12:cjc026_10760"
    INDEX 01 00:29:25
  TRACK 49 AUDIO
    TITLE "0:"
    INDEX 01 00:30:10
  TRACK 50 AUDIO
    TITLE "10:cjc026_10761"
    INDEX 01 00:30:34
  TRACK 51 AUDIO
    TITLE "0:"
    INDEX 01 00:32:29
  TRACK 52 AUDIO
    TITLE "11:cjc026_10762"
    INDEX 01 00:32:56
  TRACK 53 AUDIO
    TITLE "0:"
    INDEX 01 00:33:62
  TRACK 54 AUDIO
    TITLE "12:cjc026_10763"
    INDEX 01 00:34:12
  TRACK 55 AUDIO
    TITLE "0:"
    INDEX 01 00:36:09
  TRACK 56 AUDIO
    TITLE "10:cjc026_10764"
    INDEX 01 00:36:35
  TRACK 57 AUDIO
    TITLE "0:"
    INDEX 01 00:37:30
  TRACK 58 AUDIO
    TITLE "11:cjc026_10765"
    INDEX 01 00:37:56
  TRACK 59 AUDIO
    TITLE "0:"
    INDEX 01 00:38:49
  TRACK 60 AUDIO
    TITLE "12:cjc026_10766"
    INDEX 01 00:38:73
  TRACK 61 AUDIO
    TITLE "0:"
    INDEX 01 00:39:68
  TRACK 62 AUDIO
    TITLE "10:cjc026_10767"
    INDEX 01 00:40:19
  TRACK 63 AUDIO
    TITLE "0:"
    INDEX 01 00:41:06
  TRACK 64 AUDIO
    TITLE "11:cjc026_10768"
    INDEX 01 00:41:32
  TRACK 65 AUDIO
    TITLE "0:"
    INDEX 01 00:42:37
  TRACK 66 AUDIO
    TITLE "12:cjc026_10769"
    INDEX 01 00:42:63
  TRACK 67 AUDIO
    TITLE "0:"
    INDEX 01 00:43:50
  TRACK 68 AUDIO
    TITLE "10:cjc026_10770"
    INDEX 01 00:44:03
  TRACK 69 AUDIO
    TITLE "0:"
    INDEX 01 00:44:73
  TRACK 70 AUDIO
    TITLE "11:cjc026_10771"
    INDEX 01 00:45:24
  TRACK 71 AUDIO
    TITLE "0:"
    INDEX 01 00:46:27
  TRACK 72 AUDIO
    TITLE "12:cjc026_10772"
    INDEX 01 00:46:54
  TRACK 73 AUDIO
    TITLE "0:"
    INDEX 01 00:47:50
  TRACK 74 AUDIO
    TITLE "10:cjc026_10773"
    INDEX 01 00:48:00
  TRACK 75 AUDIO
    TITLE "0:"
    INDEX 01 00:48:73
  TRACK 76 AUDIO
    TITLE "11:cjc026_10774"
    INDEX 01 00:49:25
  TRACK 77 AUDIO
    TITLE "0:"
    INDEX 01 00:50:29
  TRACK 78 AUDIO
    TITLE "12:cjc026_10775"
    INDEX 01 00:50:54
  TRACK 79 AUDIO
    TITLE "0:"
    INDEX 01 00:51:52
  TRACK 80 AUDIO
    TITLE "10:cjc026_10776"
    INDEX 01 00:52:04
  TRACK 81 AUDIO
    TITLE "0:"
    INDEX 01 00:52:67
  TRACK 82 AUDIO
    TITLE "11:cjc026_10777"
    INDEX 01 00:53:19
  TRACK 83 AUDIO
    TITLE "0:"
    INDEX 01 00:54:25
  TRACK 84 AUDIO
    TITLE "12:cjc026_10778"
    INDEX 01 00:54:50
  TRACK 85 AUDIO
    TITLE "0:"
    INDEX 01 00:55:40
